<?xml version="1.0" encoding="UTF-8"?><svg fill="#fff" viewBox="0 0 30 30" xmlns="http://www.w3.org/2000/svg"><path d="m15 3c-6.627 0-12 5.373-12 12s5.373 12 12 12 12-5.373 12-12-5.373-12-12-12zm-4.504 5.403c0.842 0 1.403 0.561 1.403 1.309s-0.561 1.309-1.496 1.309c-0.842 1e-3 -1.403-0.561-1.403-1.309s0.561-1.309 1.496-1.309zm1.504 11.597h-3v-8h3v8zm10 0h-2.824v-4.372c0-1.209-0.753-1.488-1.035-1.488s-1.224 0.186-1.224 1.488v4.372h-2.917v-8h2.918v1.116c0.376-0.651 1.129-1.116 2.541-1.116s2.541 1.116 2.541 3.628v4.372z"/></svg>